<?xml version="1.0" encoding="utf-8"?>
<!-- Generator: Adobe Illustrator 24.2.3, SVG Export Plug-In . SVG Version: 6.00 Build 0)  -->
<svg version="1.1" id="logo" xmlns="http://www.w3.org/2000/svg" xmlns:xlink="http://www.w3.org/1999/xlink" x="0px" y="0px"
	 viewBox="0 0 480 204" style="enable-background:new 0 0 480 204;" xml:space="preserve">
<style type="text/css">
	.st0{fill:#1AC6B8;}
</style>
<g>
	<path class="st0" d="M380.7,132.6c17.3,0,30.9-13.4,30.9-30.6S398,71.4,380.7,71.4c-16.8,0-30.5,13.8-30.5,30.7
		C350.2,118.9,363.9,132.6,380.7,132.6z M356.4,100.2c0.7-11.3,9.9-21.3,21-22.9c9.7-1.4,19.6,3.6,24.6,12.4c2.2,3.9,3.3,8,3.3,12.5
		c0,11.8-8.3,22.3-19.9,24.6c-8,1.6-15.1-0.6-21-6.1C358.6,115.2,355.9,108.2,356.4,100.2z"/>
	<path class="st0" d="M323.6,132.6c1.7,0,3.1-1.4,3.1-3.1V74.5c0-1.7-1.4-3.1-3.1-3.1s-3.1,1.4-3.1,3.1v55.1
		C320.6,131.2,321.9,132.6,323.6,132.6z"/>
	<path class="st0" d="M288.9,132.6c1.7,0,3.1-1.4,3.1-3.1V74.5c0-1.7-1.4-3.1-3.1-3.1s-3.1,1.4-3.1,3.1v55.1
		C285.8,131.2,287.2,132.6,288.9,132.6z"/>
	<path class="st0" d="M241.2,132.6c10.3,0,19.1-8.1,19.1-17.8c0-5.3-2.2-9.2-7-12.3c-0.1,0-0.2-0.1-0.2-0.1l-11-5.7l-0.4-0.2
		c-4.4-2.1-9.4-4.4-9.4-9.7c0-5.6,4.3-10,9.9-10c4.1,0,7.3,1.6,9.9,4.9c0.5,0.6,1.1,1,1.9,1.1c0.7,0.1,1.5-0.1,2-0.6
		c1.1-0.9,1.3-2.5,0.5-3.7c-3.1-4.4-8.5-7.2-14.1-7.2c-9.1,0-15.8,6.6-15.8,15.6c0,4.8,2.2,8.5,6.5,11.2l10.4,5.5l1,0.5
		c4.7,2.3,10,4.9,10,10.3c0,6.8-6.1,12.6-13.2,12.6c-6.9,0-10.5-4.5-12.3-8.3c-0.7-1.3-2.2-1.9-3.6-1.3l-0.1,0.1
		c-0.7,0.3-1.2,0.8-1.4,1.5c-0.3,0.7-0.2,1.4,0.1,2.1C227.2,128.3,233.6,132.6,241.2,132.6z"/>
	<path class="st0" d="M181.4,132.6c6.5,0,12.7-2.7,16.7-7.2c4.2-5.2,4.2-10.5,4.2-16.6V74.2c0-1.6-1.3-2.8-2.9-2.8
		c-1.6,0-2.9,1.3-2.9,2.8v33.5c0,5.2,0,10.5-2.8,14.1c-2.8,3.6-8.4,5.3-12.3,5.3c-4,0-9.5-1.6-12.3-5.3c-2.8-3.6-2.8-9-2.8-14.1
		V74.2c0-1.6-1.3-2.8-2.9-2.8c-1.6,0-2.9,1.3-2.9,2.8v34.6c0,6.1,0,11.4,4.2,16.6C168.7,129.9,174.9,132.6,181.4,132.6z"/>
	<path class="st0" d="M71.5,132.4c1.4,0,2.7-1,3-2.4l9-43.4l18,44.6c0.4,0.9,1.2,1.5,2.2,1.5h0c1,0,1.8-0.6,2.2-1.5L124,86.5l9,43.4
		c0.3,1.4,1.6,2.4,3,2.4c0.9,0,1.8-0.4,2.4-1.1c0.6-0.7,0.8-1.7,0.6-2.6l-11.5-55.4c-0.2-1-1.1-1.8-2.1-1.9c-1-0.1-2,0.5-2.4,1.5
		l-19.3,47.4L84.5,72.9c-0.4-1-1.4-1.6-2.4-1.5c-1,0.1-1.9,0.8-2.1,1.9l-11.5,55.4c-0.2,0.9,0,1.8,0.6,2.6
		C69.7,132,70.6,132.4,71.5,132.4z"/>
	<path class="st0" d="M476.9,0H3.1C1.4,0,0,1.4,0,3.1v197.9c0,1.7,1.4,3.1,3.1,3.1h473.9c1.7,0,3.1-1.4,3.1-3.1V3.1
		C480,1.4,478.6,0,476.9,0z M473.9,197.9H6.1V6.1h467.7V197.9z"/>
</g>
</svg>
